<svg width="150" height="150" viewBox="0 0 150 150" fill="none" xmlns="http://www.w3.org/2000/svg">
<path d="M64.6875 65.2359L67.3594 56.6578C67.9688 54.7359 70.6406 54.7359 71.2031 56.6578L73.875 65.2359C73.9987 65.6471 74.025 66.0814 73.9518 66.5045C73.8786 66.9276 73.7079 67.3278 73.4532 67.6735C73.1985 68.0192 72.8668 68.3008 72.4844 68.496C72.102 68.6913 71.6794 68.7948 71.25 68.7984H67.3125C65.4375 68.7984 64.125 67.0172 64.6875 65.2359ZM69.2813 73.6266C66.5625 73.6266 63.9844 72.9703 61.8281 71.8453C61.0781 71.4703 60.3281 72.3141 60.75 72.9703C62.5313 75.736 65.6719 77.6109 69.2344 77.6109C72.7969 77.6109 75.9375 75.7828 77.7188 72.9703C78.1875 72.2672 77.3906 71.4234 76.6406 71.8453C74.5781 72.9703 72 73.6266 69.2813 73.6266ZM60.7031 57.0328C60.7037 56.5967 60.5956 56.1672 60.3886 55.7833C60.1816 55.3994 59.8821 55.0732 59.5174 54.834C59.1526 54.5949 58.734 54.4504 58.2994 54.4136C57.8648 54.3769 57.4279 54.449 57.0281 54.6234C57.1446 54.7327 57.2256 54.8744 57.2605 55.0302C57.2955 55.1859 57.2829 55.3486 57.2243 55.4972C57.1657 55.6457 57.0638 55.7732 56.9319 55.8631C56.8 55.9531 56.6441 56.0013 56.4844 56.0016C56.3567 56.0016 56.2308 55.971 56.1174 55.9123C56.0041 55.8535 55.9064 55.7684 55.8328 55.6641C55.6038 56.0536 55.4749 56.4939 55.4577 56.9454C55.4405 57.397 55.5356 57.8458 55.7344 58.2516H60.375C60.5625 57.8766 60.7031 57.4547 60.7031 57.0328ZM79.5797 54.586C79.9776 54.4312 80.4072 54.3758 80.8312 54.4246C81.2553 54.4734 81.6611 54.6249 82.0135 54.8659C82.3658 55.1069 82.654 55.4303 82.8531 55.8079C83.0523 56.1855 83.1563 56.6059 83.1563 57.0328C83.1563 57.4547 83.0625 57.8766 82.875 58.2516H78.2344C78.0119 57.8845 77.8982 57.4619 77.9063 57.0328C77.9053 56.5046 78.0638 55.9883 78.3609 55.5516C78.4137 55.6582 78.4897 55.7516 78.5832 55.825C78.6768 55.8984 78.7856 55.9499 78.9017 55.9758C79.0178 56.0017 79.1382 56.0012 79.2541 55.9745C79.37 55.9478 79.4784 55.8955 79.5714 55.8214C79.6645 55.7474 79.7398 55.6534 79.7918 55.5464C79.8438 55.4395 79.8712 55.3222 79.872 55.2033C79.8728 55.0844 79.8469 54.9668 79.7963 54.8592C79.7458 54.7515 79.6717 54.6566 79.5797 54.5813V54.586Z" fill="black"/>
<path d="M65.0859 7.51874C56.0766 1.51874 43.9594 5.44687 39.9844 15.5484C39.9596 15.6104 39.9362 15.6729 39.9141 15.7359L36.7266 24.9703V24.9844L34.5422 31.2516H27.75C20.0391 31.2516 16.1578 40.5047 21.5297 46.0031C24.627 49.2131 28.2453 51.8757 32.2313 53.8781C31.3802 56.3867 31.3127 59.0949 32.0378 61.6428C32.7629 64.1907 34.2462 66.4576 36.2906 68.1422H27.8438C21.2156 68.1422 18.3984 76.2187 23.0859 80.5078L23.1328 80.5547L30.7453 87.3094C29.3902 88.3203 28.4106 89.7541 27.9616 91.384C27.5125 93.0139 27.6195 94.747 28.2656 96.3094C21.1093 103.166 15.7902 111.71 12.7969 121.158L12.6609 121.552L12.6422 121.608C11.2295 126.077 10.1562 130.646 9.43125 135.277C9.32406 135.946 9.36356 136.632 9.54703 137.285C9.7305 137.938 10.0536 138.544 10.4939 139.06C10.9343 139.576 11.4814 139.99 12.0975 140.274C12.7136 140.558 13.3841 140.705 14.0625 140.705H31.3453C31.5656 140.733 31.7859 140.752 32.0156 140.752H106.453C106.678 140.752 106.898 140.733 107.114 140.705H124.453C124.674 140.706 124.895 140.69 125.114 140.658H125.719C131.062 140.658 134.766 136.069 134.766 131.189V106.669C134.765 105.033 134.35 103.424 133.561 101.992C132.772 100.559 131.634 99.3496 130.252 98.475C129.455 97.7974 128.522 97.2984 127.516 97.0113C126.51 96.7243 125.455 96.656 124.42 96.8109C124.003 95.3109 123.014 94.0359 121.711 93.2484C125.41 92.5162 128.741 90.5256 131.138 87.615C133.535 84.7043 134.85 81.0534 134.859 77.2828C134.859 68.3297 127.547 61.0172 118.594 61.0172C109.641 61.0172 102.328 68.3297 102.328 77.2828C102.338 81.0534 103.653 84.7043 106.05 87.615C108.447 90.5256 111.778 92.5162 115.477 93.2484C114.584 93.7862 113.846 94.545 113.333 95.4516C112.82 96.3581 112.549 97.3817 112.547 98.4234V107.283H109.172C108.892 107.282 108.614 107.331 108.352 107.428L107.859 107.512V98.4187C107.859 97.4109 108 96.4312 108.263 95.5031C103.48 92.7703 99.9548 88.2776 98.4375 82.9828C97.9306 81.2029 97.6642 79.3631 97.6453 77.5125V76.9406C97.7057 73.5903 98.5669 70.303 100.157 67.3535C101.747 64.4039 104.02 61.8777 106.786 59.9859C107.086 57.9405 106.902 55.8531 106.247 53.8922C110.249 51.888 113.882 49.2188 116.991 45.9984C122.4 40.4578 118.378 31.2469 110.77 31.2469H103.927L101.742 24.9656L98.5078 15.7125C98.4857 15.6526 98.4623 15.5932 98.4375 15.5344C94.4625 5.51249 82.4156 1.51405 73.35 7.50937L73.3313 7.52343C72.1133 8.34262 70.6788 8.78015 69.2109 8.78015C67.7431 8.78015 66.3086 8.34262 65.0906 7.52343L65.0859 7.51874ZM124.641 107.227V101.564C125.043 101.428 125.472 101.389 125.892 101.452C126.312 101.514 126.712 101.676 127.057 101.923C127.402 102.171 127.684 102.497 127.878 102.874C128.073 103.252 128.174 103.671 128.175 104.095V107.227H124.641ZM127.734 113.986V114.994H125.391V131.189C125.391 131.22 125.39 131.252 125.386 131.283H124.448C124.226 131.282 124.003 131.298 123.783 131.33H107.986C108.07 131.236 108.173 131.142 108.291 131.062C108.606 130.847 108.864 130.559 109.042 130.221C109.22 129.884 109.313 129.508 109.313 129.127C109.313 128.745 109.22 128.369 109.042 128.032C108.864 127.694 108.606 127.406 108.291 127.191C108.087 127.063 107.919 126.885 107.802 126.674C107.686 126.464 107.625 126.227 107.625 125.986C107.619 125.757 107.671 125.531 107.776 125.328C107.881 125.125 108.035 124.951 108.225 124.823C108.553 124.615 108.823 124.329 109.013 123.991C109.203 123.652 109.306 123.272 109.312 122.884C109.319 122.496 109.229 122.113 109.05 121.768C108.872 121.423 108.611 121.128 108.291 120.909C108.087 120.781 107.919 120.604 107.802 120.393C107.686 120.182 107.625 119.945 107.625 119.705C107.619 119.476 107.671 119.25 107.776 119.047C107.881 118.843 108.035 118.67 108.225 118.542C108.558 118.331 108.832 118.038 109.022 117.693C109.212 117.347 109.312 116.959 109.312 116.564C109.312 116.17 109.212 115.781 109.022 115.436C108.832 115.09 108.558 114.798 108.225 114.586C108.034 114.459 107.879 114.286 107.773 114.082C107.668 113.879 107.615 113.652 107.62 113.423C107.661 113.044 107.843 112.694 108.129 112.443C108.416 112.191 108.786 112.056 109.167 112.064C109.391 112.064 109.613 112.033 109.828 111.97H125.719C126.844 111.97 127.734 112.875 127.734 113.986ZM46.1438 65.3203C46.1107 64.7948 45.9009 64.2959 45.5484 63.9047C45.0836 62.811 44.2207 61.9348 43.1344 61.4531C42.5599 61.2006 42.0589 60.8063 41.6786 60.3071C41.2983 59.808 41.0511 59.2203 40.9602 58.5994C40.8693 57.9785 40.9377 57.3447 41.1589 56.7574C41.3801 56.1702 41.747 55.6488 42.225 55.2422C42.7585 54.7876 43.183 54.2189 43.4672 53.5781C45.6516 53.9906 47.9016 54.2109 50.1984 54.2109H51.075C50.6063 54.9 50.2641 55.6781 50.0625 56.5172C49.8281 57.4078 50.5313 58.2516 51.4219 58.2516H53.6719C53.5376 57.8596 53.4741 57.447 53.4844 57.0328C53.4844 55.9687 53.85 54.9891 54.4547 54.2109H61.7109C62.3466 55.016 62.7006 56.0072 62.7188 57.0328C62.7188 57.4547 62.625 57.8766 62.5313 58.2516H62.8594C63.6094 58.2516 64.1719 57.5953 64.0313 56.8453C63.8556 55.902 63.487 55.0051 62.9484 54.2109H75.6422C75.0977 55.005 74.7198 55.9011 74.5312 56.8453C74.3906 57.5953 74.9531 58.2516 75.7031 58.2516H76.0781C75.9844 57.8766 75.8906 57.4547 75.8906 57.0328C75.9088 56.0072 76.2628 55.016 76.8984 54.2109H84.1547C84.7641 54.9891 85.125 55.9687 85.125 57.0328C85.125 57.4547 85.0781 57.8766 84.9375 58.2516H87.1406C88.0313 58.2516 88.7344 57.4078 88.5 56.5172C88.3036 55.6939 87.9606 54.9127 87.4875 54.2109H88.6125C90.7969 54.2109 92.9438 54.0141 95.0344 53.6344C95.3185 54.2541 95.7345 54.8044 96.2531 55.2469C96.7213 55.6465 97.0824 56.1566 97.3038 56.731C97.5253 57.3053 97.6001 57.9258 97.5214 58.5363C97.4428 59.1468 97.2132 59.728 96.8534 60.2275C96.4937 60.727 96.0151 61.1289 95.4609 61.3969C94.8729 61.6821 94.3511 62.0872 93.9289 62.5861C93.5067 63.085 93.1935 63.6667 93.0094 64.2937C92.831 64.6049 92.7268 64.953 92.7047 65.3109L92.2359 72.9C91.0078 81.9937 83.3484 88.7203 74.3297 88.7203H64.5328C55.5094 88.7203 47.8547 81.9984 46.6266 72.8953L46.1438 65.3203ZM42.8531 35.8922L45.5813 28.05L45.5859 28.0406L46.2422 26.1422H92.2172L92.8875 28.0594L95.6156 35.8875H42.8531V35.8922ZM61.3172 93.1828C62.3672 93.3328 63.4406 93.4078 64.5281 93.4078H74.3344C75.2812 93.4078 76.2094 93.3515 77.1328 93.2344C76.5354 94.816 75.4772 96.182 74.0949 97.1555C72.7127 98.1291 71.0701 98.6655 69.3797 98.6953H69.0188C67.3312 98.6513 65.6955 98.1026 64.3227 97.12C62.9499 96.1374 61.9031 94.766 61.3172 93.1828ZM74.6484 102.216C77.2125 101.053 79.3359 99.0937 80.7 96.6469L78.8438 105.567L74.6484 102.216ZM71.9531 111.811L74.1234 107.798L76.5844 109.762C76.957 110.064 77.3767 110.301 77.8266 110.466L74.6109 125.93L71.9531 111.811ZM66.4688 111.811L63.6469 124.912L60.6328 110.419C61.086 110.255 61.5089 110.018 61.8844 109.716L64.2938 107.784L66.4688 111.816V111.811ZM57.7688 96.6469C59.1234 99.075 61.2281 101.03 63.7688 102.197L59.6156 105.525L57.7688 96.6469ZM118.594 87.1265C117.301 87.1265 116.021 86.8719 114.827 86.3772C113.632 85.8825 112.547 85.1575 111.633 84.2434C110.719 83.3293 109.994 82.2441 109.499 81.0498C109.005 79.8555 108.75 78.5755 108.75 77.2828C108.75 75.9901 109.005 74.7101 109.499 73.5158C109.994 72.3215 110.719 71.2363 111.633 70.3222C112.547 69.4081 113.632 68.6831 114.827 68.1884C116.021 67.6937 117.301 67.4391 118.594 67.4391C121.204 67.4391 123.708 68.4762 125.554 70.3222C127.4 72.1683 128.438 74.6721 128.438 77.2828C128.438 79.8935 127.4 82.3973 125.554 84.2434C123.708 86.0894 121.204 87.1265 118.594 87.1265Z" fill="black"/>
</svg>
